<svg width="303" height="74" viewBox="0 0 303 74" fill="none" xmlns="http://www.w3.org/2000/svg">
<path d="M0.693 65L17.829 18.065H23.247L40.383 65H35.091L31.059 53.534H10.08L5.985 65H0.693ZM11.718 48.809H29.295L19.782 21.845H21.294L11.718 48.809ZM46.6417 65V18.065H62.7697C65.8357 18.065 68.5237 18.674 70.8337 19.892C73.1437 21.068 74.9287 22.748 76.1887 24.932C77.4907 27.074 78.1417 29.573 78.1417 32.429C78.1417 35.747 77.2597 38.582 75.4957 40.934C73.7737 43.286 71.4217 44.945 68.4397 45.911L79.4017 65H73.4797L62.0137 44.777L65.4157 46.73H51.6817V65H46.6417ZM51.6817 42.005H63.0217C65.0377 42.005 66.8017 41.627 68.3137 40.871C69.8257 40.073 71.0017 38.96 71.8417 37.532C72.6817 36.062 73.1017 34.34 73.1017 32.366C73.1017 30.392 72.6817 28.691 71.8417 27.263C71.0017 25.835 69.8257 24.743 68.3137 23.987C66.8017 23.189 65.0377 22.79 63.0217 22.79H51.6817V42.005ZM87.001 65V18.065H103.129C106.195 18.065 108.883 18.674 111.193 19.892C113.503 21.068 115.288 22.748 116.548 24.932C117.85 27.074 118.501 29.573 118.501 32.429C118.501 35.747 117.619 38.582 115.855 40.934C114.133 43.286 111.781 44.945 108.799 45.911L119.761 65H113.839L102.373 44.777L105.775 46.73H92.041V65H87.001ZM92.041 42.005H103.381C105.397 42.005 107.161 41.627 108.673 40.871C110.185 40.073 111.361 38.96 112.201 37.532C113.041 36.062 113.461 34.34 113.461 32.366C113.461 30.392 113.041 28.691 112.201 27.263C111.361 25.835 110.185 24.743 108.673 23.987C107.161 23.189 105.397 22.79 103.381 22.79H92.041V42.005ZM149.473 65.756C146.197 65.756 143.131 65.168 140.275 63.992C137.461 62.774 134.983 61.094 132.841 58.952C130.699 56.768 129.019 54.206 127.801 51.266C126.583 48.284 125.974 45.029 125.974 41.501C125.974 37.973 126.583 34.739 127.801 31.799C129.019 28.817 130.699 26.255 132.841 24.113C134.983 21.929 137.461 20.249 140.275 19.073C143.131 17.897 146.197 17.309 149.473 17.309C152.749 17.309 155.794 17.918 158.608 19.136C161.464 20.312 163.963 21.992 166.105 24.176C168.247 26.318 169.927 28.859 171.145 31.799C172.363 34.739 172.972 37.973 172.972 41.501C172.972 45.029 172.363 48.284 171.145 51.266C169.927 54.206 168.247 56.768 166.105 58.952C163.963 61.094 161.464 62.774 158.608 63.992C155.794 65.168 152.749 65.756 149.473 65.756ZM149.473 61.031C152.203 61.031 154.681 60.527 156.907 59.519C159.175 58.511 161.128 57.104 162.766 55.298C164.404 53.492 165.664 51.413 166.546 49.061C167.47 46.709 167.932 44.189 167.932 41.501C167.932 38.855 167.47 36.356 166.546 34.004C165.664 31.652 164.404 29.573 162.766 27.767C161.128 25.961 159.175 24.554 156.907 23.546C154.681 22.538 152.203 22.034 149.473 22.034C146.743 22.034 144.244 22.538 141.976 23.546C139.75 24.554 137.818 25.961 136.18 27.767C134.542 29.573 133.261 31.652 132.337 34.004C131.455 36.356 131.014 38.855 131.014 41.501C131.014 44.189 131.455 46.709 132.337 49.061C133.261 51.413 134.542 53.492 136.18 55.298C137.818 57.104 139.771 58.511 142.039 59.519C144.307 60.527 146.785 61.031 149.473 61.031ZM182.67 65V18.065H187.71V60.275H208.5V65H182.67ZM216.139 65V18.065H221.179V65H216.139ZM240.385 65V22.79H227.407V18.065H258.277V22.79H245.425V65H240.385ZM264.496 65V18.065H294.736V22.79H269.536V39.107H293.476V43.832H269.536V60.275H294.736V65H264.496Z" fill="black"/>
<path d="M215 18.5L167 44.2629L176 47.8814L184.5 51L189.25 58.5L193.5 65.5L215 18.5Z" fill="#E92229" stroke="#E92227" stroke-linejoin="round"/>
</svg>
